<?xml version="1.0" encoding="iso-8859-1"?>
<!-- Uploaded to: SVG Repo, www.svgrepo.com, Generator: SVG Repo Mixer Tools -->
<svg fill="#000000" height="800px" width="800px" version="1.1" id="Layer_1" xmlns="http://www.w3.org/2000/svg" xmlns:xlink="http://www.w3.org/1999/xlink" 
	 viewBox="0 0 512 512" xml:space="preserve">
<g transform="translate(0 -1)">
	<g>
		<g>
			<path d="M511.693,288.725c-3.994-19.388-27.767-29.935-30.507-31.096c-1.007-0.418-2.091-0.648-3.183-0.666
				c-1.186-0.017-105.472-2.074-156.288-34.347l-6.904,7.117c-11.998,14.481-29.568,22.016-47.343,22.016
				c-14.029,0-28.169-4.676-39.808-14.327l-53.717-41.984l-10.513-7.006c-26.086,19.029-51.072,27.682-74.633,25.737
				c-35.721-2.978-56.098-30.225-56.277-30.481c-1.655-2.27-4.07-3.695-7.134-3.524c-2.807,0.068-5.41,1.519-6.946,3.883
				C-7.484,223.94,0.102,270.438,5.726,291.661C2.406,292.838,0,295.91,0,299.631v42.667c0,4.71,3.814,8.533,8.533,8.533H128
				c2.27,0,4.437-0.905,6.033-2.5l5.018-5.026c22.511,6.067,98.483,24.67,183.185,24.67c63.266,0,131.405-10.385,185.728-44.126
				c2.509-1.562,4.036-4.301,4.036-7.253v-25.6C512,290.219,511.889,289.459,511.693,288.725z M355.251,274.756
				c4.727-1.195,9.327-2.526,13.79-3.968c4.471-1.451,9.293,1.015,10.743,5.487c1.451,4.489-1.007,9.301-5.495,10.752
				c-4.796,1.553-9.762,2.978-14.857,4.267c-0.7,0.179-1.408,0.265-2.099,0.265c-3.806,0-7.287-2.577-8.269-6.443
				C347.913,280.55,350.686,275.908,355.251,274.756z M305.365,282.163c4.864-0.256,9.677-0.64,14.413-1.143
				c4.736-0.469,8.892,2.893,9.387,7.578c0.503,4.685-2.893,8.883-7.569,9.387c-5.035,0.538-10.146,0.947-15.326,1.22
				c-0.154,0.009-0.316,0.009-0.461,0.009c-4.506,0-8.277-3.524-8.516-8.073C297.045,286.43,300.655,282.411,305.365,282.163z
				 M245.282,287.752c0.597-4.676,4.855-7.979,9.54-7.398c4.719,0.606,9.523,1.084,14.387,1.442c4.702,0.35,8.235,4.437,7.885,9.139
				c-0.333,4.489-4.079,7.902-8.499,7.902c-0.213,0-0.427-0.009-0.64-0.026c-5.163-0.375-10.266-0.887-15.283-1.519
				C248.004,296.695,244.693,292.429,245.282,287.752z M194.893,274.159c1.57-4.446,6.46-6.776,10.889-5.188
				c4.412,1.562,8.969,3.004,13.662,4.318c4.54,1.271,7.194,5.973,5.914,10.513c-1.05,3.772-4.48,6.238-8.209,6.238
				c-0.768,0-1.536-0.102-2.304-0.316c-5.077-1.425-10.001-2.987-14.763-4.668C195.644,283.477,193.314,278.605,194.893,274.159z
				 M150.426,247.262c2.935-3.686,8.32-4.292,11.989-1.357c3.473,2.773,7.305,5.453,11.375,7.979
				c4.002,2.483,5.231,7.748,2.748,11.75c-1.613,2.603-4.395,4.036-7.253,4.036c-1.536,0-3.089-0.41-4.489-1.28
				c-4.642-2.876-9.02-5.956-13.013-9.131C148.096,256.324,147.49,250.957,150.426,247.262z M89.779,247.108
				c2.961-1.903,5.777-3.951,8.346-6.076c3.652-2.995,9.02-2.483,12.006,1.152c3.012,3.635,2.492,9.011-1.143,12.006
				c-3.089,2.56-6.451,5.009-9.993,7.279c-1.425,0.913-3.029,1.357-4.599,1.357c-2.816,0-5.564-1.382-7.194-3.925
				C84.659,254.933,85.811,249.66,89.779,247.108z M55.868,261.359c3.499-0.87,6.895-1.869,10.206-2.995
				c4.489-1.51,9.318,0.879,10.829,5.342c1.502,4.463-0.879,9.31-5.342,10.82c-3.746,1.271-7.612,2.406-11.58,3.388
				c-0.691,0.179-1.382,0.256-2.065,0.256c-3.823,0-7.305-2.594-8.277-6.468C48.512,267.127,51.294,262.494,55.868,261.359z
				 M494.933,311.791c-127.309,75.247-332.544,20.412-356.275,13.705c-0.7-0.179-1.417-0.265-2.125-0.265
				c-2.236,0-4.42,0.879-6.033,2.5l-6.033,6.033H17.067v-25.609l74.061-0.094c12.16,0,23.91,1.212,34.953,3.593
				c8.653,1.869,17.084,3.55,25.412,5.154c2.261,0.435,4.497,0.853,6.733,1.263c6.886,1.289,13.679,2.483,20.352,3.601
				c1.408,0.23,2.85,0.495,4.25,0.717c7.799,1.271,15.42,2.406,22.912,3.447c1.98,0.273,3.925,0.521,5.879,0.785
				c5.922,0.785,11.742,1.502,17.459,2.159c1.852,0.213,3.712,0.435,5.538,0.631c7.031,0.759,13.926,1.434,20.668,2.005
				c1.51,0.128,2.961,0.222,4.454,0.341c5.453,0.427,10.803,0.802,16.06,1.118c1.911,0.111,3.823,0.23,5.717,0.324
				c6.332,0.333,12.57,0.614,18.62,0.785c0.657,0.017,1.28,0.017,1.937,0.034c5.513,0.145,10.889,0.213,16.171,0.23
				c0.828,0,1.707,0.034,2.526,0.034c0.853,0,1.638-0.034,2.483-0.034c6.374-0.026,12.612-0.111,18.628-0.299
				c0.751-0.026,1.451-0.06,2.193-0.085c5.572-0.196,10.965-0.469,16.239-0.785c1.246-0.077,2.5-0.145,3.729-0.23
				c5.513-0.367,10.846-0.802,16.026-1.297c1.22-0.111,2.406-0.239,3.61-0.358c4.847-0.495,9.566-1.033,14.114-1.613
				c0.478-0.068,0.981-0.12,1.459-0.179c4.847-0.64,9.472-1.34,13.978-2.065c1.118-0.179,2.227-0.358,3.319-0.546
				c4.318-0.725,8.508-1.485,12.501-2.27c0.794-0.162,1.536-0.324,2.321-0.478c3.576-0.725,7.014-1.476,10.334-2.236
				c0.708-0.162,1.442-0.324,2.133-0.486c3.61-0.853,7.023-1.715,10.317-2.594c0.845-0.222,1.664-0.452,2.483-0.674
				c3.209-0.879,6.315-1.758,9.216-2.645c0.367-0.111,0.691-0.222,1.05-0.333c2.662-0.819,5.171-1.63,7.569-2.44
				c0.64-0.213,1.28-0.427,1.903-0.64c2.449-0.845,4.753-1.673,6.912-2.483c0.563-0.213,1.084-0.418,1.63-0.631
				c1.886-0.717,3.661-1.425,5.299-2.099c0.307-0.12,0.631-0.247,0.93-0.375c1.34-0.563,2.611-1.101,3.789-1.621V311.791z"/>
			<path d="M238.367,224.133c19.362,16.043,47.863,13.363,63.761-5.794l6.127-6.306c-1.075-1.075-2.142-2.159-3.106-3.285
				c-5.094-5.956-10.206-11.332-15.275-16.256l-27.844,27.827c-1.664,1.664-3.849,2.5-6.033,2.5c-2.176,0-4.361-0.836-6.033-2.5
				c-3.328-3.337-3.328-8.738,0-12.075l27.196-27.179c-5.282-4.403-10.419-8.294-15.343-11.708l-25.387,25.37
				c-1.664,1.673-3.849,2.5-6.033,2.5c-2.176,0-4.361-0.828-6.033-2.5c-3.328-3.328-3.328-8.738,0-12.066l22.647-22.639
				c-17.988-10.206-30.66-13.508-31.633-13.747c-2.918-0.717-5.982,0.137-8.081,2.253l-16.981,16.99
				c-4.318,4.198-8.61,8.107-12.868,11.767l6.485,4.326L238.367,224.133z"/>
		</g>
	</g>
</g>
</svg>